HIERARCHY
ROOT mixamorig:Hips
{
	OFFSET 0.000000 201.639420 0.000000
	CHANNELS 6 Xposition Yposition Zposition Xrotation Yrotation Zrotation
	JOINT mixamorig:Spine
	{
		OFFSET 0.006200 19.524994 -2.481800
		CHANNELS 3 Xrotation Yrotation Zrotation
		JOINT mixamorig:Spine1
		{
			OFFSET -0.000900 22.835007 -2.825400
			CHANNELS 3 Xrotation Yrotation Zrotation
			JOINT mixamorig:Spine2
			{
				OFFSET -0.020600 26.552490 -3.193300
				CHANNELS 3 Xrotation Yrotation Zrotation
				JOINT mixamorig:Neck
				{
					OFFSET -0.060000 30.701813 1.352200
					CHANNELS 3 Xrotation Yrotation Zrotation
					JOINT mixamorig:Head
					{
						OFFSET -0.087200 22.547607 3.670900
						CHANNELS 3 Xrotation Yrotation Zrotation
						JOINT mixamorig:HeadTop_End
						{
							OFFSET -0.830600 40.355194 7.893500
							CHANNELS 3 Xrotation Yrotation Zrotation
							End Site
							{
								OFFSET 0.000000 30.592346 0.000000
							}
						}
						JOINT mixamorig:RightEye
						{
							OFFSET -6.302100 18.118591 16.197100
							CHANNELS 3 Xrotation Yrotation Zrotation
							End Site
							{
								OFFSET 0.000000 30.592346 0.000000
							}
						}
						JOINT mixamorig:LeftEye
						{
							OFFSET 6.741500 18.382690 16.401899
							CHANNELS 3 Xrotation Yrotation Zrotation
							End Site
							{
								OFFSET 0.000000 30.592346 0.000000
							}
						}
					}
				}
				JOINT mixamorig:LeftShoulder
				{
					OFFSET 11.924900 18.230499 1.425400
					CHANNELS 3 Xrotation Yrotation Zrotation
					JOINT mixamorig:LeftArm
					{
						OFFSET 25.435989 -0.697632 -5.229300
						CHANNELS 3 Xrotation Yrotation Zrotation
						JOINT mixamorig:LeftForeArm
						{
							OFFSET 54.684776 0.000000 0.000000
							CHANNELS 3 Xrotation Yrotation Zrotation
							JOINT mixamorig:LeftHand
							{
								OFFSET 55.098175 0.000000 0.000000
								CHANNELS 3 Xrotation Yrotation Zrotation
								JOINT mixamorig:LeftHandMiddle1
								{
									OFFSET 23.369751 0.000000 0.000000
									CHANNELS 3 Xrotation Yrotation Zrotation
									JOINT mixamorig:LeftHandMiddle2
									{
										OFFSET 6.378677 0.000000 0.000000
										CHANNELS 3 Xrotation Yrotation Zrotation
										JOINT mixamorig:LeftHandMiddle3
										{
											OFFSET 6.148331 0.000000 0.000000
											CHANNELS 3 Xrotation Yrotation Zrotation
											JOINT mixamorig:LeftHandMiddle4
											{
												OFFSET 6.582504 0.000000 0.000000
												CHANNELS 3 Xrotation Yrotation Zrotation
												End Site
												{
													OFFSET -1.168900 6.395691 1.028606
												}
											}
										}
									}
								}
								JOINT mixamorig:LeftHandThumb1
								{
									OFFSET 7.235672 -3.848206 5.434273
									CHANNELS 3 Xrotation Yrotation Zrotation
									JOINT mixamorig:LeftHandThumb2
									{
										OFFSET 6.568451 -3.792297 3.792300
										CHANNELS 3 Xrotation Yrotation Zrotation
										JOINT mixamorig:LeftHandThumb3
										{
											OFFSET 6.063080 -3.500519 3.500518
											CHANNELS 3 Xrotation Yrotation Zrotation
											JOINT mixamorig:LeftHandThumb4
											{
												OFFSET 4.793182 -2.767334 2.767349
												CHANNELS 3 Xrotation Yrotation Zrotation
												End Site
												{
													OFFSET 0.101639 6.054260 1.275483
												}
											}
										}
									}
								}
								JOINT mixamorig:LeftHandIndex1
								{
									OFFSET 23.101074 -0.309540 4.992809
									CHANNELS 3 Xrotation Yrotation Zrotation
									JOINT mixamorig:LeftHandIndex2
									{
										OFFSET 6.226883 0.000000 0.000000
										CHANNELS 3 Xrotation Yrotation Zrotation
										JOINT mixamorig:LeftHandIndex3
										{
											OFFSET 6.094330 0.000000 0.000000
											CHANNELS 3 Xrotation Yrotation Zrotation
											JOINT mixamorig:LeftHandIndex4
											{
												OFFSET 5.482605 0.000000 0.000000
												CHANNELS 3 Xrotation Yrotation Zrotation
												End Site
												{
													OFFSET -1.427902 5.233032 0.797164
												}
											}
										}
									}
								}
								JOINT mixamorig:LeftHandRing1
								{
									OFFSET 22.299240 0.021149 -3.964172
									CHANNELS 3 Xrotation Yrotation Zrotation
									JOINT mixamorig:LeftHandRing2
									{
										OFFSET 6.321869 0.000000 0.000000
										CHANNELS 3 Xrotation Yrotation Zrotation
										JOINT mixamorig:LeftHandRing3
										{
											OFFSET 5.899796 0.000000 0.000000
											CHANNELS 3 Xrotation Yrotation Zrotation
											JOINT mixamorig:LeftHandRing4
											{
												OFFSET 6.517899 0.000000 0.000000
												CHANNELS 3 Xrotation Yrotation Zrotation
												End Site
												{
													OFFSET -1.637299 6.232208 0.980890
												}
											}
										}
									}
								}
								JOINT mixamorig:LeftHandPinky1
								{
									OFFSET 20.463791 -0.302338 -8.562233
									CHANNELS 3 Xrotation Yrotation Zrotation
									JOINT mixamorig:LeftHandPinky2
									{
										OFFSET 6.908646 0.000000 0.000000
										CHANNELS 3 Xrotation Yrotation Zrotation
										JOINT mixamorig:LeftHandPinky3
										{
											OFFSET 4.622849 0.000000 0.000000
											CHANNELS 3 Xrotation Yrotation Zrotation
											JOINT mixamorig:LeftHandPinky4
											{
												OFFSET 5.216080 0.000000 0.000000
												CHANNELS 3 Xrotation Yrotation Zrotation
												End Site
												{
													OFFSET -0.606308 5.116241 0.814926
												}
											}
										}
									}
								}
							}
						}
					}
				}
				JOINT mixamorig:RightShoulder
				{
					OFFSET -12.001300 18.284088 1.348900
					CHANNELS 3 Xrotation Yrotation Zrotation
					JOINT mixamorig:RightArm
					{
						OFFSET -25.308500 -0.751312 -5.164599
						CHANNELS 3 Xrotation Yrotation Zrotation
						JOINT mixamorig:RightForeArm
						{
							OFFSET -54.684429 0.000000 0.000000
							CHANNELS 3 Xrotation Yrotation Zrotation
							JOINT mixamorig:RightHand
							{
								OFFSET -55.150291 0.000000 0.000000
								CHANNELS 3 Xrotation Yrotation Zrotation
								JOINT mixamorig:RightHandMiddle1
								{
									OFFSET -23.317566 0.000000 0.000000
									CHANNELS 3 Xrotation Yrotation Zrotation
									JOINT mixamorig:RightHandMiddle2
									{
										OFFSET -6.378403 0.000000 0.000000
										CHANNELS 3 Xrotation Yrotation Zrotation
										JOINT mixamorig:RightHandMiddle3
										{
											OFFSET -6.148193 0.000000 0.000000
											CHANNELS 3 Xrotation Yrotation Zrotation
											JOINT mixamorig:RightHandMiddle4
											{
												OFFSET -6.583389 0.000000 0.000000
												CHANNELS 3 Xrotation Yrotation Zrotation
												End Site
												{
													OFFSET 1.171692 6.395905 1.029786
												}
											}
										}
									}
								}
								JOINT mixamorig:RightHandThumb1
								{
									OFFSET -7.190521 -3.860474 5.435846
									CHANNELS 3 Xrotation Yrotation Zrotation
									JOINT mixamorig:RightHandThumb2
									{
										OFFSET -6.567429 -3.791718 3.791708
										CHANNELS 3 Xrotation Yrotation Zrotation
										JOINT mixamorig:RightHandThumb3
										{
											OFFSET -6.062469 -3.500153 3.500166
											CHANNELS 3 Xrotation Yrotation Zrotation
											JOINT mixamorig:RightHandThumb4
											{
												OFFSET -4.792618 -2.767029 2.767022
												CHANNELS 3 Xrotation Yrotation Zrotation
												End Site
												{
													OFFSET -0.100327 6.053253 1.276754
												}
											}
										}
									}
								}
								JOINT mixamorig:RightHandIndex1
								{
									OFFSET -23.048981 -0.310791 4.992554
									CHANNELS 3 Xrotation Yrotation Zrotation
									JOINT mixamorig:RightHandIndex2
									{
										OFFSET -6.227539 0.000000 0.000000
										CHANNELS 3 Xrotation Yrotation Zrotation
										JOINT mixamorig:RightHandIndex3
										{
											OFFSET -6.095047 0.000000 0.000000
											CHANNELS 3 Xrotation Yrotation Zrotation
											JOINT mixamorig:RightHandIndex4
											{
												OFFSET -5.484772 0.000000 0.000000
												CHANNELS 3 Xrotation Yrotation Zrotation
												End Site
												{
													OFFSET 1.420593 5.237305 0.797056
												}
											}
										}
									}
								}
								JOINT mixamorig:RightHandRing1
								{
									OFFSET -22.246323 0.020569 -3.963762
									CHANNELS 3 Xrotation Yrotation Zrotation
									JOINT mixamorig:RightHandRing2
									{
										OFFSET -6.322128 0.000000 0.000000
										CHANNELS 3 Xrotation Yrotation Zrotation
										JOINT mixamorig:RightHandRing3
										{
											OFFSET -5.900024 0.000000 0.000000
											CHANNELS 3 Xrotation Yrotation Zrotation
											JOINT mixamorig:RightHandRing4
											{
												OFFSET -6.518356 0.000000 0.000000
												CHANNELS 3 Xrotation Yrotation Zrotation
												End Site
												{
													OFFSET 1.636398 6.232697 0.982186
												}
											}
										}
									}
								}
								JOINT mixamorig:RightHandPinky1
								{
									OFFSET -20.411011 -0.303314 -8.561701
									CHANNELS 3 Xrotation Yrotation Zrotation
									JOINT mixamorig:RightHandPinky2
									{
										OFFSET -6.907349 0.000000 0.000000
										CHANNELS 3 Xrotation Yrotation Zrotation
										JOINT mixamorig:RightHandPinky3
										{
											OFFSET -4.623840 0.000000 0.000000
											CHANNELS 3 Xrotation Yrotation Zrotation
											JOINT mixamorig:RightHandPinky4
											{
												OFFSET -5.218353 0.000000 0.000000
												CHANNELS 3 Xrotation Yrotation Zrotation
												End Site
												{
													OFFSET 0.602097 5.118835 0.816273
												}
											}
										}
									}
								}
							}
						}
					}
				}
			}
		}
	}
	JOINT mixamorig:LeftUpLeg
	{
		OFFSET 18.168400 -13.561905 -0.039000
		CHANNELS 3 Xrotation Yrotation Zrotation
		JOINT mixamorig:LeftLeg
		{
			OFFSET 0.577358 -80.825211 -3.695000
			CHANNELS 3 Xrotation Yrotation Zrotation
			JOINT mixamorig:LeftFoot
			{
				OFFSET -0.577356 -83.370262 -6.520700
				CHANNELS 3 Xrotation Yrotation Zrotation
				JOINT mixamorig:LeftToeBase
				{
					OFFSET 0.750401 -20.798306 25.135401
					CHANNELS 3 Xrotation Yrotation Zrotation
					JOINT mixamorig:LeftToe_End
					{
						OFFSET -0.000500 0.001200 19.917799
						CHANNELS 3 Xrotation Yrotation Zrotation
						End Site
						{
							OFFSET 0.000000 19.917805 0.000000
						}
					}
				}
			}
		}
	}
	JOINT mixamorig:RightUpLeg
	{
		OFFSET -18.162500 -13.585098 -0.041000
		CHANNELS 3 Xrotation Yrotation Zrotation
		JOINT mixamorig:RightLeg
		{
			OFFSET -0.595024 -80.945297 -3.631900
			CHANNELS 3 Xrotation Yrotation Zrotation
			JOINT mixamorig:RightFoot
			{
				OFFSET 0.595024 -83.218193 -6.561200
				CHANNELS 3 Xrotation Yrotation Zrotation
				JOINT mixamorig:RightToeBase
				{
					OFFSET -0.753601 -20.807106 25.115000
					CHANNELS 3 Xrotation Yrotation Zrotation
					JOINT mixamorig:RightToe_End
					{
						OFFSET 0.000299 0.001700 19.918200
						CHANNELS 3 Xrotation Yrotation Zrotation
						End Site
						{
							OFFSET 0.000000 19.918203 0.000000
						}
					}
				}
			}
		}
	}
}
MOTION
Frames: 4
Frame Time: 0.033333
11.346931 182.775757 -8.889658 10.593661 -15.231583 6.214659 7.354277 -0.392329 0.933788 5.568643 -0.433087 0.491408 5.565099 -0.474427 0.503987 14.549761 -0.267799 -10.837687 -17.524753 -8.811445 3.291162 -0.000000 0.000002 -0.000000 -0.000000 0.000002 -0.000000 -0.000000 0.000002 -0.000000 0.720591 2.428819 -10.283532 -70.708038 -2.971630 -7.320519 -0.000034 -112.290202 -0.000035 23.067333 -23.291044 21.409771 0.748242 3.126507 -26.911876 4.683095 6.522276 -71.329380 1.285275 4.010952 -35.523148 0.000002 -0.000001 -0.000001 -1.540034 3.690174 6.142353 3.939032 7.948698 0.746797 -0.579462 1.575012 2.538719 -0.000001 0.000002 0.000000 0.749123 3.128237 -26.927908 4.681254 6.521641 -71.313199 1.285279 4.010971 -35.523158 -0.000002 0.000002 -0.000002 0.749126 3.128250 -26.927912 4.681260 6.521667 -71.313199 1.285278 4.010962 -35.523155 -0.000001 0.000001 0.000000 2.580557 6.748895 -26.575238 4.695150 2.439205 -71.490832 1.285274 4.010971 -35.523168 -0.000001 0.000000 0.000000 0.105692 -0.784598 -5.418050 -39.552372 -5.409922 35.838341 -0.000014 137.270779 0.000012 21.125963 -4.731299 -4.906016 1.393591 -4.180733 36.856281 4.234904 -6.398942 66.963229 1.149386 -3.834236 33.363210 0.000000 -0.000000 0.000001 -1.849246 -3.581789 -6.586135 4.637205 -8.634138 -0.225404 -1.273763 0.137322 -2.094874 0.000000 0.000000 -0.000000 1.393589 -4.180732 36.856295 4.234880 -6.398899 66.963222 1.149380 -3.834252 33.363200 0.000001 -0.000000 -0.000001 1.393596 -4.180744 36.856278 4.234892 -6.398916 66.963229 1.149370 -3.834240 33.363196 -0.000004 0.000000 0.000001 1.393590 -4.180722 36.856278 4.234891 -6.398926 66.963222 1.149383 -3.834245 33.363203 -0.000002 -0.000001 -0.000000 -45.446682 9.498241 18.075160 35.702584 -3.705541 1.374593 -0.108348 0.648102 -13.948156 -3.758995 0.000000 0.000002 0.000000 -0.000000 -0.000000 -36.379131 4.145888 -22.698045 43.158866 -3.747582 0.295195 -12.228718 -3.123383 20.381252 -4.413120 0.000010 -0.000001 -0.000000 -0.000002 -0.000000 
12.666162 182.011826 -10.680698 9.191332 -15.667602 5.024840 7.787178 -0.805239 0.260922 5.978263 -0.687270 0.147964 5.973597 -0.731238 0.161815 15.457956 -0.542753 -11.545608 -15.385310 -10.503024 2.868796 -0.000000 0.000000 -0.000000 -0.000000 0.000000 -0.000000 -0.000000 0.000000 -0.000000 0.955357 1.581565 -11.849334 -62.018944 -13.642561 -16.872580 0.000117 -104.925885 0.000111 19.893110 -9.257933 25.893654 0.586287 2.784999 -23.771784 3.239832 5.842703 -57.988183 0.860532 3.338221 -28.903380 0.000001 -0.000002 -0.000001 -1.540036 3.690177 6.142351 3.939032 7.948706 0.746801 -0.579461 1.575009 2.538719 -0.000003 0.000001 0.000002 0.587061 2.786742 -23.787797 3.238174 5.841683 -57.972050 0.860542 3.338219 -28.903383 0.000001 0.000002 0.000003 0.587061 2.786764 -23.787792 3.238195 5.841697 -57.972037 0.860544 3.338215 -28.903383 -0.000002 0.000000 -0.000002 2.215161 6.502255 -23.409273 3.256792 1.764975 -58.252313 0.860546 3.338239 -28.903390 0.000002 -0.000001 -0.000000 1.693490 8.933308 -5.679853 -47.477591 0.433686 34.504077 0.000027 127.056436 -0.000039 28.958431 -4.910372 -3.774955 1.378518 -4.160626 36.649289 4.173666 -6.372732 66.412894 1.131183 -3.806553 33.090224 0.000002 0.000001 -0.000002 -1.849247 -3.581788 -6.586133 4.637206 -8.634139 -0.225406 -1.273763 0.137322 -2.094872 0.000000 0.000000 -0.000004 1.378514 -4.160618 36.649286 4.173655 -6.372708 66.412894 1.131190 -3.806537 33.090211 -0.000001 -0.000001 -0.000002 1.378517 -4.160634 36.649289 4.173670 -6.372730 66.412894 1.131183 -3.806537 33.090207 0.000001 0.000001 0.000000 1.378518 -4.160614 36.649286 4.173670 -6.372745 66.412907 1.131191 -3.806529 33.090214 -0.000001 -0.000000 0.000000 -45.537428 7.992012 18.434872 37.622441 -2.820800 1.467708 -0.382379 0.699633 -13.901857 -3.730083 -0.000001 -0.000000 -0.000000 0.000000 0.000000 -37.231607 2.294150 -23.206845 44.279908 -0.903042 0.564704 -11.160097 -2.695071 19.582105 -4.327966 -0.000017 -0.000006 -0.000000 -0.000002 0.000000 
13.581993 180.530807 -11.866749 7.559746 -16.856678 3.577696 8.457742 -0.357838 -0.778953 6.641658 -0.257068 -0.433310 6.639896 -0.316568 -0.422708 11.327527 -0.801361 -9.581424 -23.628696 -12.319491 4.327301 0.000001 0.000002 -0.000000 0.000001 0.000002 -0.000000 0.000001 0.000002 -0.000000 0.896452 0.843684 -9.424850 -57.283868 -22.451756 -26.703758 0.000826 -97.611565 0.000787 9.940686 -5.507188 27.685282 0.425257 2.386589 -20.203700 1.843410 4.693429 -42.867592 0.475954 2.519942 -21.388010 -0.000002 0.000001 -0.000000 -1.540036 3.690173 6.142351 3.939035 7.948701 0.746798 -0.579457 1.575007 2.538718 -0.000001 0.000001 -0.000001 0.425930 2.388411 -20.219710 1.842083 4.691998 -42.851514 0.475951 2.519966 -21.388013 -0.000002 -0.000002 -0.000001 0.425929 2.388416 -20.219713 1.842088 4.692018 -42.851500 0.475951 2.519952 -21.388013 -0.000001 0.000003 0.000002 1.817325 6.197966 -19.813503 1.859684 0.623334 -43.230832 0.475952 2.519967 -21.388012 0.000000 0.000005 0.000000 2.241055 11.714005 -4.730307 -54.169766 12.503758 37.832674 -0.000033 107.914462 0.000003 33.747924 -3.975406 -4.373803 1.170805 -3.866512 33.682105 3.327203 -5.934070 58.528444 0.885231 -3.400126 29.177981 0.000003 -0.000001 -0.000002 -1.849247 -3.581787 -6.586135 4.637206 -8.634136 -0.225408 -1.273762 0.137320 -2.094863 0.000001 0.000000 0.000001 1.170805 -3.866515 33.682108 3.327196 -5.934037 58.528451 0.885228 -3.400128 29.177974 0.000001 0.000001 -0.000000 1.170805 -3.866524 33.682108 3.327202 -5.934057 58.528444 0.885218 -3.400131 29.177970 -0.000001 0.000002 0.000001 1.170806 -3.866507 33.682105 3.327184 -5.934050 58.528437 0.885224 -3.400148 29.177981 0.000002 -0.000001 -0.000002 -46.134666 7.256347 20.198618 41.034018 -2.895683 1.328352 -1.614281 0.848225 -13.749115 -3.706210 0.000000 0.000002 -0.000000 -0.000000 -0.000000 -38.697318 -2.114893 -22.626935 45.653756 3.407067 -2.158066 -12.240011 -2.586879 18.863891 -4.358775 0.000017 0.000000 0.000000 -0.000002 -0.000000 
14.447120 179.135880 -12.059074 7.269779 -17.963761 2.742532 8.425529 0.052219 -1.692826 6.699222 0.123084 -0.981576 6.700683 0.064170 -0.972335 3.970386 -1.292876 -6.292295 -33.721023 -14.316774 4.845115 -0.000000 -0.000004 -0.000000 -0.000000 -0.000004 -0.000000 -0.000000 -0.000004 -0.000000 0.748760 0.118480 -5.303974 -55.371678 -25.501029 -35.968702 -0.003360 -94.019938 -0.003412 12.690871 -7.957040 28.650557 0.294828 1.997040 -16.794394 0.835125 3.291838 -28.463714 0.211574 1.697048 -14.211866 -0.000000 -0.000003 -0.000000 -1.540040 3.690175 6.142349 3.939025 7.948703 0.746800 -0.579461 1.575008 2.538720 0.000001 0.000002 -0.000002 0.295382 1.998891 -16.810405 0.834205 3.290135 -28.447682 0.211569 1.697053 -14.211859 -0.000000 0.000005 0.000001 0.295381 1.998893 -16.810393 0.834205 3.290145 -28.447690 0.211576 1.697046 -14.211868 0.000001 -0.000002 -0.000000 1.455844 5.884449 -16.379789 0.844119 -0.771251 -28.898483 0.211575 1.697062 -14.211861 -0.000001 -0.000004 -0.000001 2.448784 12.287681 -3.711467 -59.214462 22.433628 43.518294 -0.031739 90.247167 0.031574 27.325244 -3.538462 -5.431093 0.871803 -3.376041 28.951201 2.125609 -5.007968 45.975725 0.551978 -2.719654 22.941386 -0.000001 -0.000000 -0.000002 -1.849248 -3.581790 -6.586132 4.637206 -8.634137 -0.225400 -1.273763 0.137320 -2.094867 0.000000 -0.000001 0.000003 0.871803 -3.376035 28.951205 2.125602 -5.007939 45.975735 0.551978 -2.719665 22.941391 -0.000000 -0.000000 0.000005 0.871807 -3.376049 28.951208 2.125605 -5.007958 45.975718 0.551978 -2.719648 22.941385 0.000001 -0.000001 0.000004 0.871810 -3.376046 28.951201 2.125610 -5.007955 45.975725 0.551978 -2.719649 22.941396 -0.000001 0.000001 0.000002 -47.685420 6.965135 21.598067 44.251740 -3.070987 1.503841 -3.052316 0.995224 -13.641224 -3.669244 0.000000 0.000000 0.000001 -0.000000 -0.000000 -38.885165 -1.414165 -21.687165 46.632468 3.851356 -2.040512 -13.399924 -2.742196 18.826814 -4.388546 0.000001 -0.000000 -0.000000 0.000001 -0.000000 
